<svg xmlns="http://www.w3.org/2000/svg" viewBox="0 0 512 512">
  <!-- Background circle -->
  <circle cx="256" cy="256" r="230" fill="#00abe4"/>
  
  <!-- Chat bubble -->
  <path d="M140 180c0-22 18-40 40-40h192c22 0 40 18 40 40v120c0 22-18 40-40 40H256l-60 50v-50h-16c-22 0-40-18-40-40V180z" 
        fill="white" opacity="0.95"/>
  
  <!-- Translation arrows inside bubble -->
  <g transform="translate(256, 226)">
    <!-- Left arrow (source language) -->
    <text x="-60" y="12" text-anchor="middle" font-size="40" fill="#1e375a">中</text>
    <path d="M-30 0 l12-8v6h24v4h-24v6z" fill="#00abe4"/>
    
    <!-- Right arrow (target language) -->
    <path d="M12 0 l-12-8v6h-24v4h24v6z" fill="#00abe4"/>
    <text x="60" y="12" text-anchor="middle" font-size="40" fill="#00abe4">EN</text>
  </g>
  
  <!-- Small decorative dots -->
  <circle cx="160" cy="120" r="6" fill="white" opacity="0.7"/>
  <circle cx="190" cy="108" r="4" fill="white" opacity="0.5"/>
  <circle cx="352" cy="120" r="6" fill="white" opacity="0.7"/>
  <circle cx="322" cy="108" r="4" fill="white" opacity="0.5"/>
</svg>
